<svg width="329" height="158" viewBox="0 0 329 158" fill="none" xmlns="http://www.w3.org/2000/svg">
<path d="M169.399 78.3977C168.786 79.7908 170.563 80.5531 175.555 81.0262C177.913 81.2628 181.924 81.7359 184.466 82.1039C190.744 83.0239 192.521 82.7348 190.836 81.1314C188.907 79.3177 170.072 76.8994 169.399 78.3977Z" fill="#81726A"/>
<path d="M196.196 80.974C193.44 80.6586 192.766 83.5763 205.23 84.9431C213.407 85.8368 216.133 85.758 216.133 84.5751C216.133 82.3408 203.423 81.8151 196.196 80.974Z" fill="#81726A"/>
<path d="M302.282 68.7509C301.424 68.1201 300.904 68.0675 299.311 68.4618C296.8 69.0927 288.103 73.9555 288.103 74.7178C288.103 77.3201 296.892 75.0332 301.026 71.3532C302.956 69.6709 303.078 69.3555 302.282 68.7509Z" fill="#81726A"/>
<path d="M275.392 77.4251C264.796 80.7633 265.378 80.4742 266.511 81.6308C268.165 83.3131 277.934 81.6571 281.548 79.0811C284.304 77.1622 279.986 75.9793 275.392 77.4251Z" fill="#81726A"/>
<path d="M225.412 83.5233C220.91 83.7073 220.696 83.7865 221.369 84.7853C222.686 86.8356 236.131 87.5188 238.305 85.6525C240.541 83.7336 236.498 83.0502 225.412 83.5233Z" fill="#81726A"/>
<path d="M255.18 82.1043C255.027 82.1569 252.332 82.6301 249.239 83.1295C242.685 84.1809 242.133 84.4701 244.645 85.5741C247.462 86.8095 261.458 84.7855 261.458 83.1295C261.458 82.1832 257.018 81.4472 255.18 82.1043Z" fill="#81726A"/>
<path d="M166.601 79.3166C167.214 77.9234 165.437 77.1611 160.445 76.688C158.087 76.4514 154.076 75.9783 151.534 75.6103C145.256 74.6903 143.479 74.9794 145.164 76.5829C147.093 78.3966 165.928 80.8149 166.601 79.3166Z" fill="#81726A"/>
<path d="M139.804 76.7403C142.56 77.0557 143.234 74.138 130.77 72.7712C122.593 71.8775 119.867 71.9563 119.867 73.1392C119.867 75.3735 132.577 75.8992 139.804 76.7403Z" fill="#81726A"/>
<path d="M33.7182 88.9634C34.5757 89.5942 35.0963 89.6468 36.6888 89.2525C39.2001 88.6216 47.8974 83.7588 47.8974 82.9965C47.8974 80.3942 39.1082 82.6811 34.9738 86.3611C33.0444 88.0434 32.9219 88.3588 33.7182 88.9634Z" fill="#81726A"/>
<path d="M60.6076 80.2892C71.204 76.9509 70.6221 77.2401 69.489 76.0835C67.8352 74.4012 58.066 76.0572 54.4522 78.6332C51.696 80.5521 56.0138 81.7349 60.6076 80.2892Z" fill="#81726A"/>
<path d="M110.588 74.1909C115.09 74.0069 115.304 73.9278 114.631 72.929C113.314 70.8787 99.8692 70.1955 97.6948 72.0618C95.4591 73.9807 99.5017 74.6641 110.588 74.1909Z" fill="#81726A"/>
<path d="M80.8198 75.61C80.9729 75.5574 83.6683 75.0842 86.7614 74.5848C93.3152 73.5334 93.8665 73.2442 91.3552 72.1402C88.5377 70.9048 74.5416 72.9288 74.5416 74.5848C74.5416 75.5311 78.9823 76.2671 80.8198 75.61Z" fill="#81726A"/>
<path d="M306.5 56.25C306.062 56.25 305.688 56.125 305.375 55.875C305.063 55.625 304.828 55.2969 304.672 54.8906C304.078 53.1406 303.328 51.5 302.422 49.9688C301.547 48.4375 300.312 46.6406 298.719 44.5781C297.125 42.5156 295.828 40.5469 294.828 38.6719C293.859 36.7969 293.375 34.5312 293.375 31.875C293.375 28.2187 294.641 25.125 297.172 22.5937C299.734 20.0312 302.844 18.75 306.5 18.75C310.156 18.75 313.25 20.0312 315.781 22.5937C318.344 25.125 319.625 28.2187 319.625 31.875C319.625 34.7188 319.078 37.0938 317.984 39C316.922 40.875 315.688 42.7344 314.281 44.5781C312.594 46.8281 311.312 48.7031 310.438 50.2031C309.594 51.6719 308.891 53.2344 308.328 54.8906C308.172 55.3281 307.922 55.6719 307.578 55.9219C307.266 56.1406 306.906 56.25 306.5 56.25ZM306.5 36.5625C307.813 36.5625 308.922 36.1094 309.828 35.2031C310.734 34.2969 311.188 33.1875 311.188 31.875C311.188 30.5625 310.734 29.4531 309.828 28.5469C308.922 27.6406 307.813 27.1875 306.5 27.1875C305.188 27.1875 304.078 27.6406 303.172 28.5469C302.266 29.4531 301.812 30.5625 301.812 31.875C301.812 33.1875 302.266 34.2969 303.172 35.2031C304.078 36.1094 305.188 36.5625 306.5 36.5625Z" fill="#81726A"/>
<path d="M22.5 78.25C22.0625 78.25 21.6875 78.125 21.375 77.875C21.0625 77.625 20.8281 77.2969 20.6719 76.8906C20.0781 75.1406 19.3281 73.5 18.4219 71.9688C17.5469 70.4375 16.3125 68.6406 14.7188 66.5781C13.125 64.5156 11.8281 62.5469 10.8281 60.6719C9.85938 58.7969 9.375 56.5312 9.375 53.875C9.375 50.2187 10.6406 47.125 13.1719 44.5937C15.7344 42.0312 18.8438 40.75 22.5 40.75C26.1563 40.75 29.25 42.0312 31.7812 44.5937C34.3438 47.125 35.625 50.2187 35.625 53.875C35.625 56.7188 35.0781 59.0938 33.9844 61C32.9219 62.875 31.6875 64.7344 30.2813 66.5781C28.5938 68.8281 27.3125 70.7031 26.4375 72.2031C25.5938 73.6719 24.8906 75.2344 24.3281 76.8906C24.1719 77.3281 23.9219 77.6719 23.5781 77.9219C23.2656 78.1406 22.9063 78.25 22.5 78.25ZM22.5 58.5625C23.8125 58.5625 24.9219 58.1094 25.8281 57.2031C26.7344 56.2969 27.1875 55.1875 27.1875 53.875C27.1875 52.5625 26.7344 51.4531 25.8281 50.5469C24.9219 49.6406 23.8125 49.1875 22.5 49.1875C21.1875 49.1875 20.0781 49.6406 19.1719 50.5469C18.2656 51.4531 17.8125 52.5625 17.8125 53.875C17.8125 55.1875 18.2656 56.2969 19.1719 57.2031C20.0781 58.1094 21.1875 58.5625 22.5 58.5625Z" fill="#81726A"/>
</svg>
