<svg width="255" height="214" viewBox="0 0 255 214" fill="none" xmlns="http://www.w3.org/2000/svg">
<path d="M238.464 113.71C242.402 99.03 158.029 72.017 115.351 60.3455L56.991 54.4542L24.7818 96.6306C18.6195 99.4226 19.0828 110.681 20.0848 115.962C59.8998 132.538 144.007 162.64 153.408 168.472C162.81 174.304 170.361 175.604 174.025 173.271L238.464 113.71Z" fill="#B1B0B0"/>
<path d="M174.266 66.3325L147.741 48.9235L87.7341 38.9902C85.1027 42.5391 79.2366 49.2003 76.8236 47.4534C74.4105 45.7065 56.9778 48.3274 48.563 49.8562L16.5465 75.6515C9.63275 78.5359 10.4757 84.1817 11.7614 86.644L18.1408 109.641L27.4382 114.915C29.4609 122.207 35.1524 129.689 42.3042 133.746C48.0257 136.991 54.4695 128.358 56.9763 123.635L116.364 142.197C117.287 146.975 121.429 156.981 130.607 158.785C142.08 161.039 144.005 148.423 145.716 154.593C147.085 159.529 165.356 160.22 174.321 159.948L232.758 109.91C234.966 86.5844 224.677 79.3303 219.257 78.619L174.266 66.3325Z" fill="#B3C895"/>
<ellipse cx="15.0851" cy="16.7248" rx="15.0851" ry="16.7248" transform="matrix(-0.963612 0.267305 0.267305 0.963612 51.8277 104.083)" fill="#5C706C"/>
<path d="M27.7076 128.13C30.1162 136.813 38.3825 142.006 46.099 139.866C53.8155 137.725 58.225 129.015 55.8165 120.333C53.4079 111.65 45.1416 106.456 37.4251 108.597C29.7086 110.737 25.2991 119.447 27.7076 128.13Z" fill="#5C706C" stroke="black"/>
<ellipse cx="7.54257" cy="8.52639" rx="7.54257" ry="8.52639" transform="matrix(-0.963612 0.267305 0.267305 0.963612 46.5227 114.403)" fill="#A5A79D"/>
<ellipse cx="15.0851" cy="16.7248" rx="15.0851" ry="16.7248" transform="matrix(-0.963612 0.267305 0.267305 0.963612 51.8277 104.083)" fill="#5C6B70"/>
<ellipse cx="7.54257" cy="8.52639" rx="7.54257" ry="8.52639" transform="matrix(-0.963612 0.267305 0.267305 0.963612 46.5227 114.403)" fill="#BCBCBB"/>
<ellipse cx="15.0851" cy="16.7248" rx="15.0851" ry="16.7248" transform="matrix(-0.963612 0.267305 0.267305 0.963612 140.573 127.11)" fill="#5C706C"/>
<path d="M116.453 151.157C118.862 159.84 127.128 165.033 134.845 162.893C142.561 160.752 146.971 152.042 144.562 143.36C142.153 134.677 133.887 129.483 126.171 131.624C118.454 133.765 114.045 142.474 116.453 151.157Z" fill="#5C706C" stroke="black"/>
<ellipse cx="7.54257" cy="8.52639" rx="7.54257" ry="8.52639" transform="matrix(-0.963612 0.267305 0.267305 0.963612 135.268 137.43)" fill="#A5A79D"/>
<ellipse cx="15.0851" cy="16.7248" rx="15.0851" ry="16.7248" transform="matrix(-0.963612 0.267305 0.267305 0.963612 140.573 127.11)" fill="#5C6B70"/>
<ellipse cx="7.54257" cy="8.52639" rx="7.54257" ry="8.52639" transform="matrix(-0.963612 0.267305 0.267305 0.963612 135.268 137.43)" fill="#BCBCBB"/>
<path d="M110.501 83.723L148.746 48.6107L175.914 65.5776C168.828 87.1456 138.687 99.046 124.502 102.3L110.501 83.723Z" fill="#D9D9D9"/>
<path d="M89.1356 38.6014L150.233 49.064L110.782 82.9644L58.8373 74.4171L51.608 66.486L89.1356 38.6014Z" fill="#C5DAA8"/>
<path d="M114.299 95.3282L104.895 84.7849L55.2835 75.9138C50.929 78.6555 42.4542 85.1702 43.3918 89.2953C44.3294 93.4203 51.9786 95.0188 55.686 95.3024C74.8463 99.4012 114.042 106.933 117.541 104.269C121.04 101.605 116.837 97.1984 114.299 95.3282Z" fill="#D9D9D9"/>
<path d="M49.9656 66.3066L73.9203 47.8722L62.5649 48.2125L35.7714 66.732L49.9656 66.3066Z" fill="#D9D9D9"/>
<ellipse cx="6.8867" cy="10.1661" rx="6.8867" ry="10.1661" transform="matrix(-0.999918 0.0128298 0.0128298 0.999918 229.614 84.9537)" fill="#D9D9D9"/>
<ellipse cx="6.8867" cy="10.1661" rx="6.8867" ry="10.1661" transform="matrix(-0.540445 0.84138 0.84138 0.540445 163.119 129.023)" fill="#D9D9D9"/>
</svg>
